<svg width="269" height="95" viewBox="0 0 269 95" fill="none" xmlns="http://www.w3.org/2000/svg">
<path fill-rule="evenodd" clip-rule="evenodd" d="M230 0H209V13H217H218V14V20H230V0ZM217 20V14H209V20H217ZM208 14V20V21H209H217V30H215H214V31V35H203V32V31H202H196V17H205H206V16V14H208ZM208 13V0H206V13H208ZM218 21H230H231V30H218V21ZM231 17H232H235V0H231V17ZM236 0H257V13H251H250V14V17H236V0ZM251 14H257V20H254V18V17H253H251V14ZM257 21H254V30H261H262V31V35H269V19H262H261V18V14H258V20V21H257ZM253 18V20H251V18H253ZM253 21H251V30H253V21ZM250 18V20H236V18H250ZM235 20V18H232V30H236H237V31V39H239V31V30H240H250V21H236H235V20ZM258 0V13H261V0H258ZM205 0H184V6H189H190V7V16H195V14V13H196H205V0ZM190 17H195V31H181H180V32V53V54H181H199V56H194H193V57V78V79H194H215H216V78V68H217V81H207H206V82V95H0V0H154V3V4H155H176H177V3V0H183V6H168H167V7V28V29H168H189H190V28V17ZM218 68V81H228H229V82V86H239V70H229H228V69V65H222V67V68H221H218ZM221 65V67H218V65H221ZM221 64H218H217V65V67H216V57V56H215H200V54H202H203V53V46H214V52V53H215H221V64ZM215 52V46H221V52H215ZM222 46V52H228V48V47H229H236V40H232H231V39V31H218V35V36H217H215V45H221H222V46ZM232 39H236V31H232V39ZM237 40V47H239V40H237ZM240 40V47H250H251V48V52H261V36H254V39V40H253H240ZM254 35H261V31H254V35ZM253 31V35H251V31H253ZM253 36V39H240V31H250V35V36H251H253ZM222 64V53H228V64H222ZM229 64V53H236H237V52V48H239V52V53H240H250V69H240V65V64H239H229ZM229 48H236V52H229V48ZM217 35H215V31H217V35ZM203 36H214V45H203V36ZM202 45V36H196H195V35V32H181V53H199V46V45H200H202ZM200 53H202V46H200V53ZM199 57H194V78H215V68H200H199V67V57ZM215 67H200V57H215V67ZM196 35H202V32H196V35ZM205 16V14H196V16H205ZM189 16V7H184V16H189ZM183 7V16V17H184H189V28H168V7H183ZM155 0H176V3H155V0ZM262 18H269V14H262V18ZM269 95V36H262V52V53H261H251V69V70H250H240V86V87H239H229V95H269ZM228 82H218V86H228V82ZM217 86V82H207V95H228V87H218H217V86ZM239 69H229V65H239V69ZM250 48H240V52H250V48ZM262 0V13H269V0H262Z" fill="url(#paint0_linear_2729_650)"/>
<defs>
<linearGradient id="paint0_linear_2729_650" x1="2.04369e-08" y1="47.882" x2="269" y2="47.118" gradientUnits="userSpaceOnUse">
<stop offset="0.275" stop-color="#130E14"/>
<stop offset="1" stop-color="#4E2948"/>
</linearGradient>
</defs>
</svg>
