<svg width="20" height="30" viewBox="0 0 20 30" fill="none" xmlns="http://www.w3.org/2000/svg">
<path d="M10.0012 2.11914C5.65531 2.11914 2.11914 5.65476 2.11914 10.0006C2.11914 14.3465 5.65477 17.8827 10.0012 17.8827C14.347 17.8827 17.8827 14.3465 17.8827 10.0006C17.8827 5.65476 14.347 2.11914 10.0012 2.11914ZM10.0012 16.7995C6.2527 16.7995 3.20236 13.7497 3.20236 10.0006C3.20236 6.25216 6.25216 3.20236 10.0012 3.20236C13.7497 3.20236 16.7995 6.25216 16.7995 10.0006C16.7995 13.7491 13.7497 16.7995 10.0012 16.7995Z" fill="url(#paint0_linear_2942_1785)"/>
<path d="M10.0006 4.17188C9.70163 4.17188 9.45898 4.41452 9.45898 4.71348C9.45898 5.01245 9.70163 5.25509 10.0006 5.25509C12.6166 5.25509 14.744 7.38307 14.744 9.99905C14.744 10.298 14.9866 10.5407 15.2856 10.5407C15.5846 10.5407 15.8272 10.298 15.8272 9.99905C15.8272 6.78568 13.2134 4.17188 10.0006 4.17188Z" fill="url(#paint1_linear_2942_1785)"/>
<path d="M20 9.99973C20 4.48561 15.5139 0 10.0003 0C4.48669 0 0 4.48561 0 9.99973C0 13.2207 1.54196 16.2125 4.14168 18.0946L0.958648 26.2512C0.891489 26.4229 0.916403 26.6174 1.02472 26.7658C1.13305 26.9153 1.31394 27.0025 1.49322 26.9889L5.109 26.7907L7.63452 29.3855C7.73743 29.4917 7.87825 29.5496 8.02286 29.5496C8.0586 29.5496 8.09435 29.5464 8.13064 29.5388C8.31099 29.5031 8.46048 29.3763 8.52764 29.2057L10.0003 25.4318L11.4734 29.2057C11.5401 29.3763 11.6895 29.5031 11.8699 29.5388C11.9057 29.5464 11.9419 29.5496 11.9777 29.5496C12.1223 29.5496 12.262 29.4922 12.366 29.3855L14.8915 26.7907L18.5073 26.9889C18.5192 26.9895 18.5317 26.9905 18.5425 26.9895C18.8399 26.9938 19.0896 26.7495 19.0896 26.4479C19.0896 26.3412 19.0587 26.2415 19.0051 26.157L15.8578 18.0946C18.458 16.2125 20 13.2207 20 9.99973ZM7.82408 28.0266L5.71343 25.858C5.61107 25.753 5.47079 25.6934 5.3251 25.6934C5.31535 25.6934 5.30506 25.6934 5.29531 25.6945L2.27368 25.8602L5.07 18.6958C5.08029 18.7018 5.09113 18.7066 5.10142 18.7115C5.22328 18.7803 5.34893 18.841 5.47296 18.9038C5.57262 18.9552 5.67065 19.0094 5.77193 19.0571C5.81634 19.0782 5.86238 19.095 5.90679 19.1145C6.74303 19.4925 7.62423 19.7541 8.53359 19.8884C8.53793 19.8895 8.54226 19.8906 8.54659 19.8906C8.74428 19.9193 8.94413 19.9393 9.14453 19.9561C9.19652 19.9605 9.24798 19.9675 9.30051 19.9708C9.45975 19.9816 9.62006 19.9843 9.78038 19.9881C9.85404 19.9897 9.92715 19.9962 10.0003 19.9962C10.0225 19.9962 10.0447 19.993 10.0669 19.993C10.3447 19.9902 10.6231 19.9783 10.9037 19.9513C10.9248 19.9496 10.9454 19.9496 10.966 19.9475C10.9692 19.9475 10.973 19.9475 10.9773 19.9469L9.49603 23.7403V23.7414L7.82408 28.0266ZM14.7047 25.6945C14.5503 25.688 14.396 25.7459 14.2871 25.858L12.177 28.0266L10.5825 23.9413L12.2187 19.7487C12.4028 19.7075 12.5837 19.6561 12.7636 19.6035C12.8069 19.5922 12.8497 19.583 12.8919 19.57C13.1698 19.4866 13.4427 19.3891 13.7114 19.2813C13.7867 19.251 13.8587 19.2168 13.9329 19.186C14.1311 19.1004 14.3272 19.0094 14.5195 18.9114C14.6018 18.8691 14.6846 18.8274 14.7653 18.783C14.82 18.7532 14.8769 18.7272 14.9311 18.6963L17.728 25.8613L14.7047 25.6945ZM14.9007 17.4441C13.9269 18.087 12.8562 18.5252 11.7155 18.7473C10.8316 18.9189 9.95153 18.9579 9.0947 18.8713C7.66702 18.7283 6.30541 18.2398 5.09871 17.4431C2.58402 15.7847 1.08268 13.0013 1.08268 9.9981C1.08268 5.08138 5.08246 1.08159 9.99919 1.08159C14.9159 1.08159 18.9157 5.08138 18.9157 9.9981C18.9168 13.0024 17.4149 15.7857 14.9007 17.4441Z" fill="url(#paint2_linear_2942_1785)"/>
<defs>
<linearGradient id="paint0_linear_2942_1785" x1="2.11914" y1="10.0009" x2="17.8827" y2="10.0009" gradientUnits="userSpaceOnUse">
<stop stop-color="#C26CB3"/>
<stop offset="0.7" stop-color="#949AD2"/>
</linearGradient>
<linearGradient id="paint1_linear_2942_1785" x1="9.45898" y1="7.35627" x2="15.8272" y2="7.35627" gradientUnits="userSpaceOnUse">
<stop stop-color="#C26CB3"/>
<stop offset="0.7" stop-color="#949AD2"/>
</linearGradient>
<linearGradient id="paint2_linear_2942_1785" x1="0" y1="14.7748" x2="20" y2="14.7748" gradientUnits="userSpaceOnUse">
<stop stop-color="#C26CB3"/>
<stop offset="0.7" stop-color="#949AD2"/>
</linearGradient>
</defs>
</svg>
