<svg width="20" height="22" viewBox="0 0 20 22" fill="none" xmlns="http://www.w3.org/2000/svg">
<path d="M19.5523 14.3053C19.2673 14.0653 18.8908 13.9656 18.5277 14.0287L10.9 15.3553L8.73346 13.1887C8.66154 13.1164 8.56385 13.076 8.46154 13.076H4.61538C4.61538 12.8637 4.44346 12.6914 4.23077 12.6914H2.69231H0V13.4606H2.30769V18.8453H0V19.6145H2.69231H4.23077C4.44346 19.6145 4.61538 19.4422 4.61538 19.2299H5.67846L9.79038 21.286C9.96846 21.3749 10.1608 21.4195 10.3531 21.4191C10.5715 21.4191 10.7904 21.3618 10.9862 21.2476L19.3769 16.3529C19.7612 16.1283 20 15.7122 20 15.2672C20 14.8953 19.8365 14.5445 19.5523 14.3053ZM3.84615 18.8453H3.07692V13.4606H3.84615V18.8453ZM18.9888 15.6887L10.5985 20.5829C10.4562 20.666 10.2827 20.6718 10.1346 20.5979L5.94154 18.5014C5.88808 18.4745 5.82885 18.4606 5.76923 18.4606H4.61538V13.8453H8.30231L11.3327 16.8753C11.4654 17.0083 11.5385 17.1849 11.5385 17.3726C11.5385 17.7606 11.2231 18.076 10.8354 18.076C10.6504 18.076 10.4692 18.001 10.3381 17.8699L8.34885 15.881L7.805 16.4249L9.79423 18.4137C10.0723 18.6922 10.4415 18.8453 10.8354 18.8453C11.6469 18.8453 12.3077 18.1849 12.3077 17.3726C12.3077 16.9795 12.1546 16.6099 11.8765 16.3314L11.5654 16.0203L18.6592 14.7864C18.8023 14.7614 18.9465 14.801 19.0569 14.8937C19.1673 14.9868 19.2308 15.1229 19.2308 15.2672C19.2308 15.4399 19.1381 15.6014 18.9888 15.6887Z" fill="url(#paint0_linear_2942_1790)"/>
<path d="M13.1764 3.9726L9.33008 8.20312L9.89952 8.72085L13.7458 4.49032L13.1764 3.9726Z" fill="url(#paint1_linear_2942_1790)"/>
<path d="M9.99955 6.34675C10.6357 6.34675 11.1534 5.82906 11.1534 5.19291C11.1534 4.55675 10.6357 4.03906 9.99955 4.03906C9.3634 4.03906 8.8457 4.55675 8.8457 5.19291C8.8457 5.82906 9.3634 6.34675 9.99955 6.34675ZM9.99955 4.80829C10.2119 4.80829 10.3842 4.98099 10.3842 5.19291C10.3842 5.40483 10.2119 5.57752 9.99955 5.57752C9.78724 5.57752 9.61493 5.40483 9.61493 5.19291C9.61493 4.98099 9.78724 4.80829 9.99955 4.80829Z" fill="url(#paint2_linear_2942_1790)"/>
<path d="M11.9238 7.49955C11.9238 8.1357 12.4415 8.6534 13.0777 8.6534C13.7138 8.6534 14.2315 8.1357 14.2315 7.49955C14.2315 6.8634 13.7138 6.3457 13.0777 6.3457C12.4415 6.3457 11.9238 6.8634 11.9238 7.49955ZM13.4623 7.49955C13.4623 7.71147 13.29 7.88416 13.0777 7.88416C12.8654 7.88416 12.6931 7.71147 12.6931 7.49955C12.6931 7.28763 12.8654 7.11493 13.0777 7.11493C13.29 7.11493 13.4623 7.28763 13.4623 7.49955Z" fill="url(#paint3_linear_2942_1790)"/>
<path d="M11.259 14.4954C11.3321 14.5719 11.4329 14.6154 11.5383 14.6154C11.6436 14.6154 11.7444 14.5719 11.8175 14.4954L17.9167 8.06923C19.6636 6.22846 19.6636 3.23346 17.9167 1.39308C17.064 0.494615 15.929 0 14.7206 0C13.5183 0 12.389 0.489231 11.5383 1.37846C10.6875 0.489231 9.55826 0 8.35596 0C7.14749 0 6.01249 0.494615 5.1598 1.39308C3.41288 3.23385 3.41288 6.22885 5.1598 8.06923L11.259 14.4954ZM5.71788 1.92269C6.42365 1.17885 7.36057 0.769231 8.35596 0.769231C9.35172 0.769231 10.2883 1.17885 10.994 1.92269L11.259 2.20231C11.4048 2.355 11.6713 2.355 11.8171 2.20231L12.0821 1.92269C12.7883 1.17885 13.7252 0.769231 14.7206 0.769231C15.716 0.769231 16.6525 1.17885 17.3583 1.92269C18.8283 3.47115 18.8283 5.99115 17.3583 7.53962L11.5383 13.6719L5.71788 7.53962C4.24788 5.99115 4.24788 3.47115 5.71788 1.92269Z" fill="url(#paint4_linear_2942_1790)"/>
<path d="M10.3845 9.23047H9.61523V9.9997H10.3845V9.23047Z" fill="url(#paint5_linear_2942_1790)"/>
<path d="M11.9235 9.23047H11.1543V9.9997H11.9235V9.23047Z" fill="url(#paint6_linear_2942_1790)"/>
<path d="M13.4606 9.23047H12.6914V9.9997H13.4606V9.23047Z" fill="url(#paint7_linear_2942_1790)"/>
<defs>
<linearGradient id="paint0_linear_2942_1790" x1="0" y1="17.0553" x2="20" y2="17.0553" gradientUnits="userSpaceOnUse">
<stop stop-color="#C26CB3"/>
<stop offset="0.7" stop-color="#949AD2"/>
</linearGradient>
<linearGradient id="paint1_linear_2942_1790" x1="9.6148" y1="8.46199" x2="13.4611" y2="4.23146" gradientUnits="userSpaceOnUse">
<stop stop-color="#C26CB3"/>
<stop offset="0.7" stop-color="#949AD2"/>
</linearGradient>
<linearGradient id="paint2_linear_2942_1790" x1="8.8457" y1="5.19291" x2="11.1534" y2="5.19291" gradientUnits="userSpaceOnUse">
<stop stop-color="#C26CB3"/>
<stop offset="0.7" stop-color="#949AD2"/>
</linearGradient>
<linearGradient id="paint3_linear_2942_1790" x1="11.9238" y1="7.49955" x2="14.2315" y2="7.49955" gradientUnits="userSpaceOnUse">
<stop stop-color="#C26CB3"/>
<stop offset="0.7" stop-color="#949AD2"/>
</linearGradient>
<linearGradient id="paint4_linear_2942_1790" x1="3.84961" y1="7.30769" x2="19.2269" y2="7.30769" gradientUnits="userSpaceOnUse">
<stop stop-color="#C26CB3"/>
<stop offset="0.7" stop-color="#949AD2"/>
</linearGradient>
<linearGradient id="paint5_linear_2942_1790" x1="9.61523" y1="9.61508" x2="10.3845" y2="9.61508" gradientUnits="userSpaceOnUse">
<stop stop-color="#C26CB3"/>
<stop offset="0.7" stop-color="#949AD2"/>
</linearGradient>
<linearGradient id="paint6_linear_2942_1790" x1="11.1543" y1="9.61508" x2="11.9235" y2="9.61508" gradientUnits="userSpaceOnUse">
<stop stop-color="#C26CB3"/>
<stop offset="0.7" stop-color="#949AD2"/>
</linearGradient>
<linearGradient id="paint7_linear_2942_1790" x1="12.6914" y1="9.61508" x2="13.4606" y2="9.61508" gradientUnits="userSpaceOnUse">
<stop stop-color="#C26CB3"/>
<stop offset="0.7" stop-color="#949AD2"/>
</linearGradient>
</defs>
</svg>
