<svg width="20" height="20" viewBox="0 0 20 20" fill="none" xmlns="http://www.w3.org/2000/svg">
<path d="M19.1667 5C19.6275 5 20 4.6275 20 4.16668V0.83332C20 0.37332 19.6275 0 19.1667 0H0.83332C0.3725 0 0 0.37332 0 0.83332V4.16664C0 4.6275 0.3725 5 0.83332 5H1.66664V15H0.83332C0.3725 15 0 15.3733 0 15.8333V19.1666C0 19.6275 0.3725 20 0.83332 20H14.1666C17.3825 20 20 17.3833 20 14.1667C20 12.5825 19.3625 11.145 18.3333 10.0925V5H19.1667ZM3.33332 5.87082L9.48832 10.6583C9.495 10.6633 9.5025 10.665 9.50914 10.6691C8.77414 11.645 8.33332 12.8541 8.33332 14.1666C8.33332 14.4266 8.35664 14.68 8.38914 14.9308C8.39246 14.9541 8.39082 14.9775 8.39414 15H3.33332V5.87082ZM1.66668 18.3333V16.6666H2.5H8.90082C8.90664 16.6791 8.915 16.6891 8.92082 16.7016C9.0625 16.9925 9.225 17.2708 9.41082 17.5325C9.42582 17.5541 9.4425 17.575 9.45832 17.5958C9.64914 17.8575 9.8575 18.1041 10.0875 18.3291C10.0892 18.3308 10.09 18.3324 10.0908 18.3333H1.66668V18.3333ZM10.5117 9.3425L4.92918 5H16.6667V8.9C16.6459 8.89 16.6242 8.88332 16.6034 8.87418C16.46 8.8075 16.3134 8.74836 16.1642 8.69336C16.1159 8.67586 16.0684 8.65668 16.02 8.64086C15.8708 8.59004 15.7183 8.54836 15.5642 8.51004C15.515 8.49754 15.4659 8.48254 15.4159 8.47172C15.2584 8.43754 15.0975 8.41172 14.9359 8.39004C14.8892 8.38422 14.8425 8.37422 14.7959 8.36922C14.5892 8.34672 14.3792 8.3334 14.1667 8.3334C12.85 8.3334 11.6384 8.77758 10.6609 9.5159C10.6167 9.455 10.575 9.39082 10.5117 9.3425ZM16.5792 12.8733L14.9125 16.2066C14.8725 16.285 14.8208 16.3533 14.7617 16.4133C14.7592 16.4166 14.7584 16.42 14.7559 16.4225C14.7475 16.4317 14.7359 16.4342 14.7275 16.4417C14.6642 16.5 14.5934 16.5459 14.5167 16.5817C14.4925 16.5934 14.47 16.6042 14.445 16.6125C14.3559 16.6442 14.2642 16.6667 14.1684 16.6667H14.1667H14.1659C14.0717 16.6667 13.9784 16.645 13.8859 16.6125C13.8692 16.6058 13.8517 16.6017 13.835 16.5942C13.8217 16.5884 13.8075 16.5859 13.7942 16.5792C13.7517 16.5575 13.7234 16.5225 13.6867 16.495C13.6509 16.4692 13.61 16.455 13.5775 16.4225L11.9109 14.7558C11.585 14.4308 11.585 13.9033 11.9109 13.5775C12.2367 13.2525 12.7634 13.2525 13.0892 13.5775L13.9384 14.4267L15.0875 12.1275C15.295 11.7158 15.7942 11.5483 16.2059 11.755C16.6175 11.9608 16.785 12.4608 16.5792 12.8733Z" fill="url(#paint0_linear_2942_1780)"/>
<defs>
<linearGradient id="paint0_linear_2942_1780" x1="0" y1="10" x2="20" y2="10" gradientUnits="userSpaceOnUse">
<stop stop-color="#C26CB3"/>
<stop offset="0.7" stop-color="#949AD2"/>
</linearGradient>
</defs>
</svg>
