<svg width="20" height="22" viewBox="0 0 20 22" fill="none" xmlns="http://www.w3.org/2000/svg">
<path d="M9.47368 0C7.24028 0 5.09835 0.887216 3.5191 2.46647C1.93985 4.04572 1.05263 6.18765 1.05263 8.42105V10.4211C0.735087 10.6977 0.477794 11.0367 0.296717 11.417C0.115641 11.7972 0.0146459 12.2107 0 12.6316C0.0239762 13.2419 0.231776 13.8308 0.596171 14.3211C0.960566 14.8113 1.46456 15.18 2.04211 15.3789C3.41053 18.6526 6.15789 21.0526 9.47368 21.0526H12.6316V18.9474H9.47368C7.09474 18.9474 4.93684 17.1579 3.85263 14.3263L3.63158 13.7474L3.01053 13.6842C2.7576 13.6485 2.52631 13.522 2.35975 13.3283C2.1932 13.1346 2.10275 12.887 2.10526 12.6316C2.10637 12.4479 2.15554 12.2677 2.24787 12.1089C2.3402 11.95 2.47249 11.8182 2.63158 11.7263L3.15789 11.4211V9.47368C3.15789 9.19451 3.2688 8.92677 3.4662 8.72936C3.66361 8.53196 3.93135 8.42105 4.21053 8.42105H14.7368C15.016 8.42105 15.2838 8.53196 15.4812 8.72936C15.6786 8.92677 15.7895 9.19451 15.7895 9.47368V14.7368H11.4842C11.3887 14.4689 11.2225 14.2317 11.0032 14.0504C10.784 13.8691 10.5198 13.7504 10.2387 13.7068C9.95752 13.6633 9.66983 13.6965 9.40601 13.803C9.14219 13.9095 8.91205 14.0853 8.7399 14.3118C8.56775 14.5383 8.46001 14.8071 8.42804 15.0898C8.39608 15.3725 8.4411 15.6586 8.55833 15.9178C8.67556 16.177 8.86065 16.3998 9.09404 16.5625C9.32743 16.7252 9.60044 16.8218 9.88421 16.8421H17.8947C18.4531 16.8421 18.9886 16.6203 19.3834 16.2255C19.7782 15.8307 20 15.2952 20 14.7368V12.6316C20 12.0732 19.7782 11.5377 19.3834 11.1429C18.9886 10.7481 18.4531 10.5263 17.8947 10.5263V8.42105C17.8947 6.18765 17.0075 4.04572 15.4283 2.46647C13.849 0.887216 11.7071 0 9.47368 0Z" fill="url(#paint0_linear_2942_1789)"/>
<defs>
<linearGradient id="paint0_linear_2942_1789" x1="0" y1="10.5263" x2="20" y2="10.5263" gradientUnits="userSpaceOnUse">
<stop stop-color="#C26CB3"/>
<stop offset="0.7" stop-color="#949AD2"/>
</linearGradient>
</defs>
</svg>
